<svg width="800" height="800" viewBox="0 0 800 800" fill="none" xmlns="http://www.w3.org/2000/svg">
<g id="car-svgrepo-com 1">
<path id="Vector" d="M156.875 276.484C150.625 276.484 145.547 271.406 145.547 265.156V217.578C145.547 211.328 150.625 206.25 156.875 206.25C163.125 206.25 168.203 211.328 168.203 217.578V265.156C168.203 271.406 163.125 276.484 156.875 276.484Z" fill="#02F446"/>
<path id="Vector_2" d="M156.875 206.172C150.625 206.172 145.547 211.25 145.547 217.5V237.422H168.203V217.5C168.203 211.25 163.125 206.172 156.875 206.172Z" fill="black"/>
<path id="Vector_3" d="M466.797 276.484C460.547 276.484 455.469 271.406 455.469 265.156V217.578C455.469 211.328 460.547 206.25 466.797 206.25C473.047 206.25 478.125 211.328 478.125 217.578V265.156C478.125 271.406 473.125 276.484 466.797 276.484Z" fill="#02F446"/>
<path id="Vector_4" d="M466.797 206.172C460.547 206.172 455.469 211.25 455.469 217.5V237.422H478.125V217.5C478.125 211.25 473.125 206.172 466.797 206.172Z" fill="black"/>
<path id="Vector_5" d="M656.172 304.688H678.828V376.25H656.172V304.688Z" fill="#333E48"/>
<path id="Vector_6" d="M656.25 304.688V327.5C659.844 328.75 663.594 329.375 667.578 329.375C671.562 329.375 675.391 328.672 678.906 327.5V304.688H656.25Z" fill="black"/>
<path id="Vector_7" d="M644.375 294.609C644.375 300.763 646.82 306.665 651.171 311.016C655.522 315.368 661.424 317.812 667.578 317.812C673.732 317.812 679.634 315.368 683.985 311.016C688.337 306.665 690.781 300.763 690.781 294.609C690.781 288.456 688.337 282.554 683.985 278.202C679.634 273.851 673.732 271.406 667.578 271.406C661.424 271.406 655.522 273.851 651.171 278.202C646.82 282.554 644.375 288.456 644.375 294.609Z" fill="#F40259"/>
<path id="Vector_8" d="M676.719 441.641H730.859V478.359H676.719V441.641Z" fill="#FFB819"/>
<path id="Vector_9" d="M685.313 478.359H672.891C670 478.359 667.578 476.016 667.578 473.125V446.875C667.578 443.984 669.922 441.641 672.891 441.641H685.313V478.359Z" fill="white"/>
<path id="Vector_10" d="M81.6406 441.641L75.3906 478.359H122.5V441.641H81.6406Z" fill="#FFB819"/>
<path id="Vector_11" d="M113.984 478.359H126.406C129.297 478.359 131.641 476.016 131.641 473.125V446.875C131.641 443.984 129.297 441.641 126.406 441.641H113.984V478.359Z" fill="white"/>
<path id="Vector_12" d="M315.313 521.484C315.313 470.234 273.75 428.672 222.5 428.672C171.25 428.672 129.688 470.234 129.688 521.484H315.313Z" fill="black"/>
<path id="Vector_13" d="M650.469 521.484C650.469 470.234 608.906 428.672 557.656 428.672C506.406 428.672 464.844 470.234 464.844 521.484H650.469Z" fill="black"/>
<g id="carbody">
<path id="Vector_14" d="M496.328 224.375H127.344C121.094 224.375 116.016 219.297 116.016 213.047C116.016 206.797 121.094 201.719 127.344 201.719H496.328C502.578 201.719 507.656 206.797 507.656 213.047C507.656 219.297 502.578 224.375 496.328 224.375Z" fill="#F40259"/>
<path id="Vector_15" d="M704.453 373.438H541.484L525.625 279.922C523.203 265.625 509.375 253.906 494.844 253.906H139.844C125.312 253.906 111.484 265.625 109.063 279.922L72.5 495.469C70.0781 509.766 79.9219 521.484 94.4531 521.484H704.453C718.984 521.484 730.859 509.609 730.859 495.078V399.766C730.859 385.313 718.984 373.438 704.453 373.438Z" fill="#0071CE"/>
<path id="Vector_16" d="M751.016 515.312C751.016 523.047 744.687 529.375 736.953 529.375H705.312C697.578 529.375 691.25 523.047 691.25 515.312V492.5C691.25 484.766 697.578 478.438 705.312 478.438H736.953C744.687 478.438 751.016 484.766 751.016 492.5V515.312ZM108.828 515.312C108.828 523.047 102.5 529.375 94.7656 529.375H63.125C55.3906 529.375 49.0625 523.047 49.0625 515.312V492.5C49.0625 484.766 55.3906 478.438 63.125 478.438H94.7656C102.5 478.438 108.828 484.766 108.828 492.5V515.312Z" fill="#F40259"/>
</g>
<path id="Vector_17" d="M358.203 296.25C358.203 289.609 363.672 284.141 370.312 284.141H469.453C476.094 284.141 481.563 289.609 481.563 296.25V350.859C481.563 357.5 476.094 362.969 469.453 362.969H370.234C363.594 362.969 358.125 357.5 358.125 350.859V296.25H358.203ZM156.016 296.016C157.109 289.453 163.516 284.062 170.156 284.062H278.359C285 284.062 290.469 289.531 290.469 296.172V350.781C290.469 357.422 285 362.891 278.359 362.891H156.797C150.156 362.891 145.625 357.5 146.719 350.938L156.016 296.016Z" fill="#333E48"/>
<path id="Vector_18" d="M409.766 405.234H368.75C362.5 405.234 357.422 400.156 357.422 393.906C357.422 387.656 362.5 382.578 368.75 382.578H409.766C416.016 382.578 421.094 387.656 421.094 393.906C421.094 400.156 416.016 405.234 409.766 405.234ZM189.141 405.234H148.125C141.875 405.234 136.797 400.156 136.797 393.906C136.797 387.656 141.875 382.578 148.125 382.578H189.141C195.391 382.578 200.469 387.656 200.469 393.906C200.469 400.156 195.391 405.234 189.141 405.234Z" fill="#00B3E3"/>
<path id="Vector_19" d="M469.453 284.141H370.234C363.594 284.141 358.125 289.609 358.125 296.25V309.766C358.125 303.125 363.594 297.656 370.234 297.656H469.375C476.016 297.656 481.484 303.125 481.484 309.766V296.25C481.484 289.531 476.094 284.141 469.453 284.141ZM278.281 284.141H170.156C163.516 284.141 157.188 289.531 156.016 296.094L153.828 308.984C155.234 302.734 161.406 297.734 167.813 297.734H278.359C285 297.734 290.469 303.203 290.469 309.844V296.328C290.391 289.531 285 284.141 278.281 284.141Z" fill="black"/>
<path id="Sharifix" d="M328.31 440.276C328.196 439.13 327.708 438.24 326.847 437.605C325.985 436.971 324.815 436.653 323.338 436.653C322.334 436.653 321.487 436.795 320.795 437.08C320.104 437.354 319.574 437.738 319.205 438.23C318.845 438.723 318.665 439.281 318.665 439.906C318.646 440.427 318.755 440.882 318.991 441.27C319.238 441.658 319.574 441.994 320 442.278C320.426 442.553 320.919 442.795 321.477 443.003C322.036 443.202 322.633 443.372 323.267 443.514L325.881 444.139C327.15 444.423 328.314 444.802 329.375 445.276C330.436 445.749 331.354 446.331 332.131 447.023C332.907 447.714 333.509 448.528 333.935 449.466C334.37 450.403 334.593 451.478 334.602 452.69C334.593 454.471 334.138 456.014 333.239 457.321C332.348 458.618 331.061 459.627 329.375 460.347C327.699 461.057 325.677 461.412 323.31 461.412C320.961 461.412 318.916 461.052 317.173 460.332C315.44 459.613 314.086 458.547 313.111 457.136C312.145 455.716 311.638 453.959 311.591 451.866H317.543C317.609 452.842 317.888 453.656 318.381 454.31C318.883 454.954 319.55 455.441 320.384 455.773C321.226 456.095 322.178 456.256 323.239 456.256C324.28 456.256 325.185 456.104 325.952 455.801C326.728 455.498 327.33 455.077 327.756 454.537C328.182 453.997 328.395 453.377 328.395 452.676C328.395 452.023 328.201 451.473 327.812 451.028C327.434 450.583 326.875 450.205 326.136 449.892C325.407 449.58 324.512 449.295 323.452 449.04L320.284 448.244C317.831 447.648 315.895 446.715 314.474 445.446C313.054 444.177 312.348 442.468 312.358 440.318C312.348 438.557 312.817 437.018 313.764 435.702C314.721 434.385 316.032 433.358 317.699 432.619C319.366 431.881 321.259 431.511 323.381 431.511C325.54 431.511 327.424 431.881 329.034 432.619C330.653 433.358 331.913 434.385 332.812 435.702C333.712 437.018 334.176 438.543 334.205 440.276H328.31ZM344.677 448.386V461H338.626V431.909H344.506V443.031H344.762C345.254 441.743 346.05 440.735 347.148 440.006C348.247 439.267 349.625 438.898 351.282 438.898C352.797 438.898 354.118 439.229 355.245 439.892C356.381 440.545 357.262 441.488 357.887 442.719C358.522 443.94 358.834 445.403 358.825 447.108V461H352.773V448.188C352.783 446.843 352.442 445.796 351.751 445.048C351.069 444.3 350.112 443.926 348.881 443.926C348.058 443.926 347.328 444.101 346.694 444.452C346.069 444.802 345.576 445.313 345.217 445.986C344.866 446.649 344.686 447.449 344.677 448.386ZM369.808 461.412C368.416 461.412 367.176 461.17 366.087 460.688C364.998 460.195 364.136 459.471 363.501 458.514C362.876 457.548 362.564 456.346 362.564 454.906C362.564 453.694 362.786 452.676 363.232 451.852C363.677 451.028 364.283 450.366 365.05 449.864C365.817 449.362 366.688 448.983 367.663 448.727C368.648 448.472 369.68 448.292 370.76 448.188C372.029 448.055 373.052 447.932 373.828 447.818C374.605 447.695 375.168 447.515 375.518 447.278C375.869 447.042 376.044 446.691 376.044 446.227V446.142C376.044 445.242 375.76 444.546 375.192 444.054C374.633 443.562 373.838 443.315 372.805 443.315C371.716 443.315 370.85 443.557 370.206 444.04C369.562 444.513 369.136 445.11 368.928 445.83L363.331 445.375C363.615 444.049 364.174 442.903 365.007 441.938C365.84 440.962 366.915 440.214 368.232 439.693C369.557 439.163 371.091 438.898 372.834 438.898C374.046 438.898 375.206 439.04 376.314 439.324C377.431 439.608 378.421 440.048 379.283 440.645C380.154 441.241 380.84 442.009 381.342 442.946C381.844 443.874 382.095 444.987 382.095 446.284V461H376.357V457.974H376.186C375.836 458.656 375.367 459.258 374.78 459.778C374.193 460.29 373.487 460.692 372.663 460.986C371.839 461.27 370.888 461.412 369.808 461.412ZM371.541 457.236C372.431 457.236 373.217 457.061 373.899 456.71C374.581 456.35 375.116 455.867 375.504 455.261C375.893 454.655 376.087 453.969 376.087 453.202V450.886C375.897 451.009 375.637 451.123 375.305 451.227C374.983 451.322 374.619 451.412 374.212 451.497C373.804 451.573 373.397 451.644 372.99 451.71C372.583 451.767 372.214 451.819 371.882 451.866C371.172 451.971 370.552 452.136 370.021 452.364C369.491 452.591 369.079 452.899 368.786 453.287C368.492 453.666 368.345 454.139 368.345 454.707C368.345 455.531 368.643 456.161 369.24 456.597C369.846 457.023 370.613 457.236 371.541 457.236ZM386.79 461V439.182H392.656V442.989H392.884C393.281 441.634 393.949 440.612 394.886 439.92C395.824 439.22 396.903 438.869 398.125 438.869C398.428 438.869 398.755 438.888 399.105 438.926C399.455 438.964 399.763 439.016 400.028 439.082V444.452C399.744 444.366 399.351 444.291 398.849 444.224C398.348 444.158 397.888 444.125 397.472 444.125C396.581 444.125 395.786 444.319 395.085 444.707C394.394 445.086 393.845 445.616 393.438 446.298C393.04 446.98 392.841 447.766 392.841 448.656V461H386.79ZM403.157 461V439.182H409.208V461H403.157ZM406.197 436.369C405.297 436.369 404.525 436.071 403.881 435.474C403.247 434.868 402.93 434.144 402.93 433.301C402.93 432.468 403.247 431.753 403.881 431.156C404.525 430.55 405.297 430.247 406.197 430.247C407.096 430.247 407.863 430.55 408.498 431.156C409.142 431.753 409.464 432.468 409.464 433.301C409.464 434.144 409.142 434.868 408.498 435.474C407.863 436.071 407.096 436.369 406.197 436.369ZM425.788 439.182V443.727H412.322V439.182H425.788ZM415.405 461V437.605C415.405 436.024 415.713 434.712 416.328 433.67C416.953 432.629 417.805 431.848 418.885 431.327C419.964 430.806 421.191 430.545 422.564 430.545C423.492 430.545 424.339 430.616 425.107 430.759C425.883 430.901 426.461 431.028 426.839 431.142L425.76 435.688C425.523 435.612 425.23 435.541 424.879 435.474C424.538 435.408 424.188 435.375 423.828 435.375C422.938 435.375 422.318 435.583 421.967 436C421.617 436.407 421.442 436.98 421.442 437.719V461H415.405ZM429.485 461V439.182H435.536V461H429.485ZM432.525 436.369C431.625 436.369 430.853 436.071 430.21 435.474C429.575 434.868 429.258 434.144 429.258 433.301C429.258 432.468 429.575 431.753 430.21 431.156C430.853 430.55 431.625 430.247 432.525 430.247C433.424 430.247 434.192 430.55 434.826 431.156C435.47 431.753 435.792 432.468 435.792 433.301C435.792 434.144 435.47 434.868 434.826 435.474C434.192 436.071 433.424 436.369 432.525 436.369ZM445.44 439.182L449.446 446.81L453.551 439.182H459.759L453.438 450.091L459.929 461H453.75L449.446 453.457L445.213 461H438.963L445.44 450.091L439.19 439.182H445.44Z" fill="#00FF1A"/>
<g id="wheel2">
<path id="Vector_20" d="M146.328 521.484C146.328 541.686 154.353 561.061 168.638 575.346C182.923 589.631 202.298 597.656 222.5 597.656C242.702 597.656 262.077 589.631 276.362 575.346C290.647 561.061 298.672 541.686 298.672 521.484C298.672 501.282 290.647 481.908 276.362 467.623C262.077 453.338 242.702 445.312 222.5 445.312C202.298 445.312 182.923 453.338 168.638 467.623C154.353 481.908 146.328 501.282 146.328 521.484Z" fill="#333E48"/>
<path id="Vector_21" d="M183.906 521.484C183.906 531.72 187.972 541.537 195.21 548.774C202.448 556.012 212.264 560.078 222.5 560.078C232.736 560.078 242.552 556.012 249.79 548.774C257.028 541.537 261.094 531.72 261.094 521.484C261.094 511.249 257.028 501.432 249.79 494.194C242.552 486.957 232.736 482.891 222.5 482.891C212.264 482.891 202.448 486.957 195.21 494.194C187.972 501.432 183.906 511.249 183.906 521.484Z" fill="#A4A9AD"/>
<g id="Frame 2">
<rect width="11" height="72" transform="translate(217 486)" fill="#34FB5F"/>
</g>
</g>
<g id="wheel1">
<path id="Vector_22" d="M481.484 521.484C481.484 541.686 489.51 561.061 503.795 575.346C518.08 589.631 537.454 597.656 557.656 597.656C577.858 597.656 597.233 589.631 611.518 575.346C625.803 561.061 633.828 541.686 633.828 521.484C633.828 501.282 625.803 481.908 611.518 467.623C597.233 453.338 577.858 445.312 557.656 445.312C537.454 445.312 518.08 453.338 503.795 467.623C489.51 481.908 481.484 501.282 481.484 521.484Z" fill="#333E48"/>
<path id="Vector_23" d="M519.062 521.484C519.063 531.72 523.129 541.537 530.366 548.774C537.604 556.012 547.421 560.078 557.656 560.078C567.892 560.078 577.708 556.012 584.946 548.774C592.184 541.537 596.25 531.72 596.25 521.484C596.25 511.249 592.184 501.432 584.946 494.194C577.708 486.957 567.892 482.891 557.656 482.891C547.421 482.891 537.604 486.957 530.366 494.194C523.129 501.432 519.062 511.249 519.062 521.484Z" fill="#A4A9AD"/>
<g id="Frame 1">
<rect width="11" height="71" transform="translate(554 486)" fill="#34FB5F"/>
</g>
</g>
</g>
</svg>
